<svg width="270" height="68" viewBox="0 0 270 68" fill="none" xmlns="http://www.w3.org/2000/svg">
<mask id="path-1-outside-1_35_4" maskUnits="userSpaceOnUse" x="0.757629" y="0" width="270" height="68" fill="black">
<rect fill="white" x="0.757629" width="270" height="68"/>
<path d="M4.75998 8.04V37.64C4.75998 37.64 4.59998 44.2 6.91998 47C9.15998 49.88 16.76 49 22.12 48.12L19 61.88H39.4V49.16L50.52 46.6V40.36L40.76 41.16L45.24 11.4C45.24 11.4 39.88 9.16 30.52 9.24C30.52 9.24 28.92 29.8 28.04 36.84C27.88 37.72 27.8 40.12 27 40.36C25.4 40.84 18.2 43.4 16.12 41.88C13.96 40.44 18.04 27.4 19.8 22.92C22.12 17.16 24.28 5 24.28 5L4.75998 8.04Z"/>
<path d="M54.4512 61.4L62.2912 59.4V42.68L71.4912 40.6L78.2912 61.08H93.3312L77.2512 38.52L95.0112 7.8L83.0912 5.4L76.9312 26.6H69.4112V10.6H54.4512V61.4Z"/>
<path d="M98.35 23L110.51 23.48V10.92L100.27 7.8L98.35 23ZM100.03 60.68H110.83L112.43 31.64L99.15 32.28L100.03 60.68Z"/>
<path d="M147.052 49.32C146.972 53.8 142.732 55.96 140.812 56.04C138.412 56.04 135.052 54.6 133.292 53C131.132 50.76 131.852 44.44 131.852 44.44C132.572 40.2 134.652 31.16 138.012 31.16C140.412 31.16 144.572 35.56 145.772 38.6C146.972 41.64 147.212 44.84 147.052 49.32ZM136.972 7.08L137.612 23.4C137.612 23.4 131.132 25.72 127.692 26.6C124.332 27.4 119.612 30.12 117.132 32.6C115.852 33.96 115.532 39 115.852 44.76C116.172 50.52 118.252 57.24 120.172 59.4C122.172 61.64 136.172 61.4 136.172 61.4L148.572 60.84C150.412 60.44 151.932 58.6 151.932 56.76C151.932 56.76 151.932 56.68 151.852 56.68L152.412 5.32L136.972 7.08Z"/>
<path d="M187.286 49.32C187.206 53.8 182.966 55.96 181.046 56.04C178.646 56.04 175.286 54.6 173.526 53C171.366 50.76 172.086 44.44 172.086 44.44C172.806 40.2 174.886 31.16 178.246 31.16C180.646 31.16 184.806 35.56 186.006 38.6C187.206 41.64 187.446 44.84 187.286 49.32ZM177.206 7.08L177.846 23.4C177.846 23.4 171.366 25.72 167.926 26.6C164.566 27.4 159.846 30.12 157.366 32.6C156.086 33.96 155.766 39 156.086 44.76C156.406 50.52 158.486 57.24 160.406 59.4C162.406 61.64 176.406 61.4 176.406 61.4L188.806 60.84C190.646 60.44 192.166 58.6 192.166 56.76C192.166 56.76 192.166 56.68 192.086 56.68L192.646 5.32L177.206 7.08Z"/>
<path d="M219.441 46.68C219.121 47.24 218.481 47.96 218.001 48.28L216.081 49.48C215.521 49.88 214.561 50.12 214.001 50.12C213.921 50.12 213.921 50.12 213.841 50.12H209.041C208.081 50.12 206.961 49.56 206.401 48.76C205.361 47.32 204.241 44.44 204.161 38.68L204.241 34.36C204.241 34.2 204.321 33.88 204.321 33.64C204.641 32.12 206.081 30.44 207.601 29.96C208.881 29.72 210.961 29.48 212.241 29.48C212.401 29.48 212.641 29.48 212.721 29.48C214.401 29.48 217.041 29.8 218.641 30.2C219.761 30.52 220.801 31.72 220.961 32.84C221.601 35.96 222.001 42.44 219.441 46.68ZM231.121 30.2C230.641 28.04 228.481 25.8 226.241 25.24C222.321 24.36 215.841 23.56 211.761 23.56C209.441 23.64 205.681 24.2 203.361 24.76C200.401 25.64 197.361 28.68 196.641 31.72C196.561 32.04 196.481 32.68 196.481 33.08L196.321 41.16C196.321 51.96 198.721 57.56 200.881 60.36C202.081 61.88 204.561 63.16 206.481 63.16H216.321C217.681 63.16 219.761 62.52 220.881 61.8L224.961 59.32C225.841 58.6 227.121 57.24 227.841 56.28C233.281 48.2 232.321 35.96 231.121 30.2Z"/>
<path d="M240.417 44.76C236.337 49.56 234.817 54.12 234.257 60.28C242.177 60.84 260.097 64.84 264.817 55.96C268.977 48.2 258.177 41.4 253.297 37.16C244.817 29.88 259.857 32.2 264.497 32.84C264.337 24.52 260.337 22.84 252.577 23.08C246.817 23.32 237.057 24.28 240.657 32.52C242.417 36.6 256.337 41 253.777 46.2C251.457 50.68 243.137 46.04 240.417 44.76Z"/>
</mask>
<path d="M4.75998 8.04V37.64C4.75998 37.64 4.59998 44.2 6.91998 47C9.15998 49.88 16.76 49 22.12 48.12L19 61.88H39.4V49.16L50.52 46.6V40.36L40.76 41.16L45.24 11.4C45.24 11.4 39.88 9.16 30.52 9.24C30.52 9.24 28.92 29.8 28.04 36.84C27.88 37.72 27.8 40.12 27 40.36C25.4 40.84 18.2 43.4 16.12 41.88C13.96 40.44 18.04 27.4 19.8 22.92C22.12 17.16 24.28 5 24.28 5L4.75998 8.04Z" fill="#4B55C0"/>
<path d="M54.4512 61.4L62.2912 59.4V42.68L71.4912 40.6L78.2912 61.08H93.3312L77.2512 38.52L95.0112 7.8L83.0912 5.4L76.9312 26.6H69.4112V10.6H54.4512V61.4Z" fill="#4B55C0"/>
<path d="M98.35 23L110.51 23.48V10.92L100.27 7.8L98.35 23ZM100.03 60.68H110.83L112.43 31.64L99.15 32.28L100.03 60.68Z" fill="#4B55C0"/>
<path d="M147.052 49.32C146.972 53.8 142.732 55.96 140.812 56.04C138.412 56.04 135.052 54.6 133.292 53C131.132 50.76 131.852 44.44 131.852 44.44C132.572 40.2 134.652 31.16 138.012 31.16C140.412 31.16 144.572 35.56 145.772 38.6C146.972 41.64 147.212 44.84 147.052 49.32ZM136.972 7.08L137.612 23.4C137.612 23.4 131.132 25.72 127.692 26.6C124.332 27.4 119.612 30.12 117.132 32.6C115.852 33.96 115.532 39 115.852 44.76C116.172 50.52 118.252 57.24 120.172 59.4C122.172 61.64 136.172 61.4 136.172 61.4L148.572 60.84C150.412 60.44 151.932 58.6 151.932 56.76C151.932 56.76 151.932 56.68 151.852 56.68L152.412 5.32L136.972 7.08Z" fill="#4B55C0"/>
<path d="M187.286 49.32C187.206 53.8 182.966 55.96 181.046 56.04C178.646 56.04 175.286 54.6 173.526 53C171.366 50.76 172.086 44.44 172.086 44.44C172.806 40.2 174.886 31.16 178.246 31.16C180.646 31.16 184.806 35.56 186.006 38.6C187.206 41.64 187.446 44.84 187.286 49.32ZM177.206 7.08L177.846 23.4C177.846 23.4 171.366 25.72 167.926 26.6C164.566 27.4 159.846 30.12 157.366 32.6C156.086 33.96 155.766 39 156.086 44.76C156.406 50.52 158.486 57.24 160.406 59.4C162.406 61.64 176.406 61.4 176.406 61.4L188.806 60.84C190.646 60.44 192.166 58.6 192.166 56.76C192.166 56.76 192.166 56.68 192.086 56.68L192.646 5.32L177.206 7.08Z" fill="#4B55C0"/>
<path d="M219.441 46.68C219.121 47.24 218.481 47.96 218.001 48.28L216.081 49.48C215.521 49.88 214.561 50.12 214.001 50.12C213.921 50.12 213.921 50.12 213.841 50.12H209.041C208.081 50.12 206.961 49.56 206.401 48.76C205.361 47.32 204.241 44.44 204.161 38.68L204.241 34.36C204.241 34.2 204.321 33.88 204.321 33.64C204.641 32.12 206.081 30.44 207.601 29.96C208.881 29.72 210.961 29.48 212.241 29.48C212.401 29.48 212.641 29.48 212.721 29.48C214.401 29.48 217.041 29.8 218.641 30.2C219.761 30.52 220.801 31.72 220.961 32.84C221.601 35.96 222.001 42.44 219.441 46.68ZM231.121 30.2C230.641 28.04 228.481 25.8 226.241 25.24C222.321 24.36 215.841 23.56 211.761 23.56C209.441 23.64 205.681 24.2 203.361 24.76C200.401 25.64 197.361 28.68 196.641 31.72C196.561 32.04 196.481 32.68 196.481 33.08L196.321 41.16C196.321 51.96 198.721 57.56 200.881 60.36C202.081 61.88 204.561 63.16 206.481 63.16H216.321C217.681 63.16 219.761 62.52 220.881 61.8L224.961 59.32C225.841 58.6 227.121 57.24 227.841 56.28C233.281 48.2 232.321 35.96 231.121 30.2Z" fill="#4B55C0"/>
<path d="M240.417 44.76C236.337 49.56 234.817 54.12 234.257 60.28C242.177 60.84 260.097 64.84 264.817 55.96C268.977 48.2 258.177 41.4 253.297 37.16C244.817 29.88 259.857 32.2 264.497 32.84C264.337 24.52 260.337 22.84 252.577 23.08C246.817 23.32 237.057 24.28 240.657 32.52C242.417 36.6 256.337 41 253.777 46.2C251.457 50.68 243.137 46.04 240.417 44.76Z" fill="#4B55C0"/>
<path d="M4.75998 8.04V37.64C4.75998 37.64 4.59998 44.2 6.91998 47C9.15998 49.88 16.76 49 22.12 48.12L19 61.88H39.4V49.16L50.52 46.6V40.36L40.76 41.16L45.24 11.4C45.24 11.4 39.88 9.16 30.52 9.24C30.52 9.24 28.92 29.8 28.04 36.84C27.88 37.72 27.8 40.12 27 40.36C25.4 40.84 18.2 43.4 16.12 41.88C13.96 40.44 18.04 27.4 19.8 22.92C22.12 17.16 24.28 5 24.28 5L4.75998 8.04Z" stroke="#FEA31B" stroke-width="8" mask="url(#path-1-outside-1_35_4)"/>
<path d="M54.4512 61.4L62.2912 59.4V42.68L71.4912 40.6L78.2912 61.08H93.3312L77.2512 38.52L95.0112 7.8L83.0912 5.4L76.9312 26.6H69.4112V10.6H54.4512V61.4Z" stroke="#FEA31B" stroke-width="8" mask="url(#path-1-outside-1_35_4)"/>
<path d="M98.35 23L110.51 23.48V10.92L100.27 7.8L98.35 23ZM100.03 60.68H110.83L112.43 31.64L99.15 32.28L100.03 60.68Z" stroke="#FEA31B" stroke-width="8" mask="url(#path-1-outside-1_35_4)"/>
<path d="M147.052 49.32C146.972 53.8 142.732 55.96 140.812 56.04C138.412 56.04 135.052 54.6 133.292 53C131.132 50.76 131.852 44.44 131.852 44.44C132.572 40.2 134.652 31.16 138.012 31.16C140.412 31.16 144.572 35.56 145.772 38.6C146.972 41.64 147.212 44.84 147.052 49.32ZM136.972 7.08L137.612 23.4C137.612 23.4 131.132 25.72 127.692 26.6C124.332 27.4 119.612 30.12 117.132 32.6C115.852 33.96 115.532 39 115.852 44.76C116.172 50.52 118.252 57.24 120.172 59.4C122.172 61.64 136.172 61.4 136.172 61.4L148.572 60.84C150.412 60.44 151.932 58.6 151.932 56.76C151.932 56.76 151.932 56.68 151.852 56.68L152.412 5.32L136.972 7.08Z" stroke="#FEA31B" stroke-width="8" mask="url(#path-1-outside-1_35_4)"/>
<path d="M187.286 49.32C187.206 53.8 182.966 55.96 181.046 56.04C178.646 56.04 175.286 54.6 173.526 53C171.366 50.76 172.086 44.44 172.086 44.44C172.806 40.2 174.886 31.16 178.246 31.16C180.646 31.16 184.806 35.56 186.006 38.6C187.206 41.64 187.446 44.84 187.286 49.32ZM177.206 7.08L177.846 23.4C177.846 23.4 171.366 25.72 167.926 26.6C164.566 27.4 159.846 30.12 157.366 32.6C156.086 33.96 155.766 39 156.086 44.76C156.406 50.52 158.486 57.24 160.406 59.4C162.406 61.64 176.406 61.4 176.406 61.4L188.806 60.84C190.646 60.44 192.166 58.6 192.166 56.76C192.166 56.76 192.166 56.68 192.086 56.68L192.646 5.32L177.206 7.08Z" stroke="#FEA31B" stroke-width="8" mask="url(#path-1-outside-1_35_4)"/>
<path d="M219.441 46.68C219.121 47.24 218.481 47.96 218.001 48.28L216.081 49.48C215.521 49.88 214.561 50.12 214.001 50.12C213.921 50.12 213.921 50.12 213.841 50.12H209.041C208.081 50.12 206.961 49.56 206.401 48.76C205.361 47.32 204.241 44.44 204.161 38.68L204.241 34.36C204.241 34.2 204.321 33.88 204.321 33.64C204.641 32.12 206.081 30.44 207.601 29.96C208.881 29.72 210.961 29.48 212.241 29.48C212.401 29.48 212.641 29.48 212.721 29.48C214.401 29.48 217.041 29.8 218.641 30.2C219.761 30.52 220.801 31.72 220.961 32.84C221.601 35.96 222.001 42.44 219.441 46.68ZM231.121 30.2C230.641 28.04 228.481 25.8 226.241 25.24C222.321 24.36 215.841 23.56 211.761 23.56C209.441 23.64 205.681 24.2 203.361 24.76C200.401 25.64 197.361 28.68 196.641 31.72C196.561 32.04 196.481 32.68 196.481 33.08L196.321 41.16C196.321 51.96 198.721 57.56 200.881 60.36C202.081 61.88 204.561 63.16 206.481 63.16H216.321C217.681 63.16 219.761 62.52 220.881 61.8L224.961 59.32C225.841 58.6 227.121 57.24 227.841 56.28C233.281 48.2 232.321 35.96 231.121 30.2Z" stroke="#FEA31B" stroke-width="8" mask="url(#path-1-outside-1_35_4)"/>
<path d="M240.417 44.76C236.337 49.56 234.817 54.12 234.257 60.28C242.177 60.84 260.097 64.84 264.817 55.96C268.977 48.2 258.177 41.4 253.297 37.16C244.817 29.88 259.857 32.2 264.497 32.84C264.337 24.52 260.337 22.84 252.577 23.08C246.817 23.32 237.057 24.28 240.657 32.52C242.417 36.6 256.337 41 253.777 46.2C251.457 50.68 243.137 46.04 240.417 44.76Z" stroke="#FEA31B" stroke-width="8" mask="url(#path-1-outside-1_35_4)"/>
</svg>
