<svg width="26" height="24" viewBox="0 0 26 24" fill="none" xmlns="http://www.w3.org/2000/svg">
<path d="M9.24054 23.5C10.1123 23.5 10.819 22.7933 10.819 21.9216C10.819 21.0498 10.1123 20.3431 9.24054 20.3431C8.3688 20.3431 7.66211 21.0498 7.66211 21.9216C7.66211 22.7933 8.3688 23.5 9.24054 23.5Z" fill="black"/>
<path d="M20.9671 23.5C21.8388 23.5 22.5455 22.7933 22.5455 21.9216C22.5455 21.0498 21.8388 20.3431 20.9671 20.3431C20.0954 20.3431 19.3887 21.0498 19.3887 21.9216C19.3887 22.7933 20.0954 23.5 20.9671 23.5Z" fill="black"/>
<path fill-rule="evenodd" clip-rule="evenodd" d="M0.447266 1.17647C0.447266 0.802866 0.750132 0.5 1.12374 0.5H3.02042C3.36343 0.5 3.6971 0.611735 3.97094 0.818293C4.24478 1.02485 4.44388 1.31499 4.53812 1.6448L5.49954 5.0098H25.219C25.4312 5.0098 25.6312 5.10944 25.759 5.27891C25.8869 5.44837 25.9277 5.66801 25.8694 5.87212L22.8931 16.2893C22.745 16.8075 22.4321 17.2635 22.0018 17.5881C21.5715 17.9127 21.0472 18.0882 20.5081 18.0882H9.70012C9.16111 18.0882 8.63676 17.9127 8.20644 17.5881C7.77612 17.2635 7.46325 16.8075 7.31517 16.2893L4.34308 5.88696C4.34011 5.87737 4.33734 5.86769 4.33478 5.85792L3.23723 2.01648C3.22377 1.96937 3.19533 1.92792 3.15621 1.89841C3.11709 1.8689 3.06942 1.85294 3.02042 1.85294H1.12374C0.750132 1.85294 0.447266 1.55007 0.447266 1.17647ZM5.8861 6.36275L8.61605 15.9176C8.68336 16.1532 8.82558 16.3604 9.02118 16.5079C9.21678 16.6555 9.45512 16.7353 9.70012 16.7353H20.5081C20.7531 16.7353 20.9915 16.6555 21.1871 16.5079C21.3827 16.3604 21.5249 16.1532 21.5922 15.9176L24.3222 6.36275H5.8861Z" fill="black"/>
</svg>
