<svg width="27" height="24" viewBox="0 0 27 24" fill="none" xmlns="http://www.w3.org/2000/svg">
<path d="M10.8717 21.9216C10.8717 22.5172 10.3889 23 9.79328 23C9.19767 23 8.71484 22.5172 8.71484 21.9216C8.71484 21.326 9.19767 20.8431 9.79328 20.8431C10.3889 20.8431 10.8717 21.326 10.8717 21.9216Z" fill="#EDEDED" stroke="#EDEDED"/>
<path d="M22.5983 21.9216C22.5983 22.5172 22.1154 23 21.5198 23C20.9242 23 20.4414 22.5172 20.4414 21.9216C20.4414 21.326 20.9242 20.8431 21.5198 20.8431C22.1154 20.8431 22.5983 21.326 22.5983 21.9216Z" fill="#EDEDED" stroke="#EDEDED"/>
<path fill-rule="evenodd" clip-rule="evenodd" d="M1 1.17647C1 0.802866 1.30287 0.5 1.67647 0.5H3.57315C3.91616 0.5 4.24983 0.611735 4.52367 0.818293C4.79752 1.02485 4.99662 1.31499 5.09085 1.6448L6.05228 5.0098H25.7717C25.984 5.0098 26.1839 5.10944 26.3118 5.27891C26.4396 5.44837 26.4805 5.66801 26.4222 5.87212L23.4458 16.2893C23.2977 16.8075 22.9849 17.2635 22.5545 17.5881C22.1242 17.9127 21.5999 18.0882 21.0609 18.0882H10.2529C9.71384 18.0882 9.1895 17.9127 8.75918 17.5881C8.32886 17.2635 8.01598 16.8075 7.8679 16.2893L4.89581 5.88696C4.89284 5.87737 4.89007 5.86769 4.88752 5.85792L3.78996 2.01648C3.7765 1.96937 3.74806 1.92792 3.70894 1.89841C3.66982 1.8689 3.62215 1.85294 3.57315 1.85294H1.67647C1.30287 1.85294 1 1.55007 1 1.17647ZM6.43883 6.36275L9.16879 15.9176C9.2361 16.1532 9.37831 16.3604 9.57391 16.5079C9.76951 16.6555 10.0079 16.7353 10.2529 16.7353H21.0609C21.3059 16.7353 21.5442 16.6555 21.7398 16.5079C21.9354 16.3604 22.0776 16.1532 22.1449 15.9176L24.8749 6.36275H6.43883Z" fill="#EDEDED" stroke="#EDEDED" stroke-linecap="round" stroke-linejoin="round"/>
</svg>
