<svg width="256" height="65" viewBox="0 0 256 65" fill="none" xmlns="http://www.w3.org/2000/svg">
<g filter="url(#filter0_d_682_288)">
<path d="M36.2173 55V52.888C37.8386 52.8027 38.9479 52.44 39.5453 51.8C40.1426 51.1173 40.4626 50.2 40.5053 49.048C40.5906 47.8533 40.6333 46.5093 40.6333 45.016V17.368C40.6333 16.5147 40.6546 15.704 40.6973 14.936C40.7399 14.1253 40.7826 13.4 40.8253 12.76C40.0573 12.8027 39.2893 12.8453 38.5213 12.888C37.7533 12.9307 36.9853 12.9733 36.2173 13.016V10.2C38.6066 10.1573 41.0173 10.1147 43.4493 10.072C45.9239 10.0293 48.3986 10.0507 50.8733 10.136C55.0119 10.1787 58.3399 10.6693 60.8573 11.608C63.4173 12.504 65.2946 13.8053 66.4893 15.512C67.6839 17.176 68.2813 19.2027 68.2813 21.592C68.3239 23.256 68.0039 24.9627 67.3213 26.712C66.6813 28.4187 65.4866 29.9547 63.7373 31.32C62.0306 32.6853 59.5559 33.7093 56.3133 34.392C57.1666 34.9893 57.9133 35.7573 58.5533 36.696C59.1933 37.6347 59.9186 38.7227 60.7293 39.96L65.0813 46.808C65.8066 47.96 66.5106 49.0053 67.1933 49.944C67.8759 50.84 68.6653 51.5653 69.5613 52.12C70.4573 52.632 71.5666 52.888 72.8893 52.888V55H64.8253C63.5879 53.8907 62.5426 52.7813 61.6893 51.672C60.8786 50.5627 60.0253 49.304 59.1293 47.896L54.8413 41.048C54.2866 40.152 53.6466 39.128 52.9213 37.976C52.2386 36.7813 51.4493 35.7787 50.5533 34.968C49.8706 35.0107 49.1453 35.032 48.3773 35.032C47.6519 35.032 46.9266 35.0107 46.2013 34.968V47.384C46.2013 48.536 46.1799 49.5387 46.1373 50.392C46.1373 51.2027 46.0946 51.8853 46.0093 52.44C46.5213 52.3973 47.0333 52.376 47.5453 52.376C48.0573 52.3333 48.5693 52.2907 49.0813 52.248C49.5933 52.2053 50.1053 52.184 50.6173 52.184V55H36.2173ZM50.1693 32.6C52.5159 32.5147 54.5639 32.1307 56.3133 31.448C58.1053 30.7653 59.5133 29.6773 60.5373 28.184C61.5613 26.6907 62.0733 24.728 62.0733 22.296C62.0733 20.6747 61.8386 19.2667 61.3693 18.072C60.9426 16.8347 60.2599 15.8107 59.3213 15C58.3826 14.1893 57.1879 13.592 55.7373 13.208C54.2866 12.7813 52.5799 12.568 50.6173 12.568C49.0386 12.568 47.9293 12.888 47.2893 13.528C46.6919 14.168 46.3506 15.064 46.2653 16.216C46.2226 17.3253 46.2013 18.648 46.2013 20.184V32.472C46.8839 32.5147 47.5239 32.5573 48.1213 32.6C48.7613 32.6427 49.4439 32.6427 50.1693 32.6ZM90.7513 56.024C87.8073 56.024 85.1406 55.3413 82.7513 53.976C80.4046 52.568 78.5486 50.6053 77.1833 48.088C75.8179 45.528 75.1353 42.52 75.1353 39.064C75.1353 36.0773 75.7966 33.2827 77.1193 30.68C78.4846 28.0773 80.3833 25.9867 82.8153 24.408C85.2473 22.7867 88.0633 21.976 91.2633 21.976C93.0553 21.976 94.7193 22.2747 96.2553 22.872C97.8339 23.4267 99.2206 24.3013 100.415 25.496C101.61 26.648 102.549 28.12 103.231 29.912C103.914 31.6613 104.255 33.7307 104.255 36.12L81.7273 36.504C81.7273 39.7467 82.0686 42.6053 82.7513 45.08C83.4766 47.512 84.6286 49.4107 86.2073 50.776C87.7859 52.0987 89.8126 52.76 92.2873 52.76C93.6099 52.76 94.9539 52.5253 96.3193 52.056C97.7273 51.5867 99.0286 50.9467 100.223 50.136C101.418 49.3253 102.378 48.4293 103.103 47.448L104.639 48.728C103.487 50.52 102.101 51.9493 100.479 53.016C98.8579 54.0827 97.1939 54.8507 95.4873 55.32C93.7806 55.7893 92.2019 56.024 90.7513 56.024ZM81.9193 33.816H98.2393C98.2393 32.28 98.0046 30.808 97.5353 29.4C97.1086 27.9493 96.3833 26.776 95.3593 25.88C94.3353 24.9413 92.9913 24.472 91.3273 24.472C88.8526 24.472 86.7833 25.2187 85.1193 26.712C83.4979 28.1627 82.4313 30.5307 81.9193 33.816ZM121.798 55.192L112.646 34.328C111.964 32.7067 111.43 31.32 111.046 30.168C110.662 29.016 110.385 28.056 110.214 27.288C110.086 26.52 110.001 25.9013 109.958 25.432L107.206 25.624V23H118.982V24.92C117.702 24.92 116.87 25.2613 116.486 25.944C116.145 26.584 116.102 27.4587 116.358 28.568C116.614 29.6347 116.998 30.7867 117.51 32.024L122.438 43.288C122.78 44.0133 123.1 44.7813 123.398 45.592C123.74 46.36 124.06 47.1707 124.358 48.024H124.422C124.636 47.384 124.87 46.7013 125.126 45.976C125.425 45.2507 125.681 44.5467 125.894 43.864L131.014 29.848C131.356 28.824 131.718 27.928 132.102 27.16C132.486 26.392 132.764 25.816 132.934 25.432L128.838 25.624V23H138.95V24.92C138.012 24.92 137.222 25.24 136.582 25.88C135.942 26.52 135.324 27.48 134.726 28.76C134.172 30.04 133.51 31.64 132.742 33.56L124.358 55.192H121.798ZM157.126 56.024C154.182 56.024 151.516 55.3413 149.126 53.976C146.78 52.568 144.924 50.6053 143.558 48.088C142.193 45.528 141.51 42.52 141.51 39.064C141.51 36.0773 142.172 33.2827 143.494 30.68C144.86 28.0773 146.758 25.9867 149.19 24.408C151.622 22.7867 154.438 21.976 157.638 21.976C159.43 21.976 161.094 22.2747 162.63 22.872C164.209 23.4267 165.596 24.3013 166.79 25.496C167.985 26.648 168.924 28.12 169.606 29.912C170.289 31.6613 170.63 33.7307 170.63 36.12L148.102 36.504C148.102 39.7467 148.444 42.6053 149.126 45.08C149.852 47.512 151.004 49.4107 152.582 50.776C154.161 52.0987 156.188 52.76 158.662 52.76C159.985 52.76 161.329 52.5253 162.694 52.056C164.102 51.5867 165.404 50.9467 166.598 50.136C167.793 49.3253 168.753 48.4293 169.478 47.448L171.014 48.728C169.862 50.52 168.476 51.9493 166.854 53.016C165.233 54.0827 163.569 54.8507 161.862 55.32C160.156 55.7893 158.577 56.024 157.126 56.024ZM148.294 33.816H164.614C164.614 32.28 164.38 30.808 163.91 29.4C163.484 27.9493 162.758 26.776 161.734 25.88C160.71 24.9413 159.366 24.472 157.702 24.472C155.228 24.472 153.158 25.2187 151.494 26.712C149.873 28.1627 148.806 30.5307 148.294 33.816ZM176.326 53.08C177.648 53.08 178.566 52.76 179.078 52.12C179.59 51.4373 179.888 50.52 179.974 49.368C180.059 48.1733 180.102 46.808 180.102 45.272V30.68C180.102 29.9973 180.102 29.3147 180.102 28.632C180.144 27.9493 180.23 27.2453 180.358 26.52C179.59 26.5627 178.822 26.6053 178.054 26.648C177.328 26.648 176.582 26.6693 175.814 26.712V24.088H177.798C179.632 24.088 180.891 23.9173 181.574 23.576C182.299 23.192 182.896 22.7867 183.366 22.36H185.222C185.307 23.0427 185.371 23.896 185.414 24.92C185.456 25.9013 185.499 27.16 185.542 28.696C186.182 27.6293 187.056 26.584 188.166 25.56C189.275 24.536 190.512 23.6827 191.878 23C193.286 22.3173 194.758 21.976 196.294 21.976C197.488 21.976 198.534 22.296 199.43 22.936C200.326 23.576 200.774 24.6 200.774 26.008C200.774 26.3493 200.667 26.776 200.454 27.288C200.24 27.7573 199.899 28.184 199.43 28.568C198.96 28.9093 198.342 29.08 197.574 29.08C196.635 29.0373 195.888 28.6747 195.334 27.992C194.779 27.2667 194.566 26.4347 194.694 25.496C193.627 25.4533 192.518 25.7307 191.366 26.328C190.256 26.9253 189.211 27.7573 188.23 28.824C187.248 29.848 186.374 31.064 185.606 32.472L185.67 48.216C185.67 49.0693 185.648 49.8373 185.606 50.52C185.606 51.16 185.542 51.8427 185.414 52.568C186.096 52.5253 186.758 52.504 187.398 52.504C188.08 52.4613 188.763 52.4187 189.446 52.376V55H176.326V53.08ZM204.013 53.08C205.336 53.08 206.253 52.76 206.765 52.12C207.277 51.4373 207.576 50.52 207.661 49.368C207.747 48.1733 207.789 46.808 207.789 45.272V30.68C207.789 29.9973 207.811 29.3573 207.853 28.76C207.896 28.12 207.96 27.3733 208.045 26.52C207.277 26.5627 206.509 26.6053 205.741 26.648C205.016 26.6907 204.269 26.7333 203.501 26.776V24.088C205.379 24.088 206.829 24.0027 207.853 23.832C208.877 23.6613 209.645 23.448 210.157 23.192C210.712 22.936 211.139 22.6587 211.437 22.36H213.293V48.216C213.293 49.0693 213.272 49.8373 213.229 50.52C213.229 51.16 213.165 51.8427 213.037 52.568C213.72 52.5253 214.381 52.504 215.021 52.504C215.704 52.4613 216.387 52.4187 217.069 52.376V55H204.013V53.08ZM210.221 16.024C209.325 16.024 208.536 15.6613 207.853 14.936C207.171 14.2107 206.829 13.3147 206.829 12.248C206.829 11.1813 207.171 10.2853 207.853 9.56C208.579 8.792 209.389 8.408 210.285 8.408C211.267 8.408 212.077 8.792 212.717 9.56C213.4 10.2853 213.741 11.1813 213.741 12.248C213.741 13.3147 213.379 14.2107 212.653 14.936C211.971 15.6613 211.16 16.024 210.221 16.024ZM237.501 56.024C234.557 56.024 231.891 55.3413 229.501 53.976C227.155 52.568 225.299 50.6053 223.933 48.088C222.568 45.528 221.885 42.52 221.885 39.064C221.885 36.0773 222.547 33.2827 223.869 30.68C225.235 28.0773 227.133 25.9867 229.565 24.408C231.997 22.7867 234.813 21.976 238.013 21.976C239.805 21.976 241.469 22.2747 243.005 22.872C244.584 23.4267 245.971 24.3013 247.165 25.496C248.36 26.648 249.299 28.12 249.981 29.912C250.664 31.6613 251.005 33.7307 251.005 36.12L228.477 36.504C228.477 39.7467 228.819 42.6053 229.501 45.08C230.227 47.512 231.379 49.4107 232.957 50.776C234.536 52.0987 236.563 52.76 239.037 52.76C240.36 52.76 241.704 52.5253 243.069 52.056C244.477 51.5867 245.779 50.9467 246.973 50.136C248.168 49.3253 249.128 48.4293 249.853 47.448L251.389 48.728C250.237 50.52 248.851 51.9493 247.229 53.016C245.608 54.0827 243.944 54.8507 242.237 55.32C240.531 55.7893 238.952 56.024 237.501 56.024ZM228.669 33.816H244.989C244.989 32.28 244.755 30.808 244.285 29.4C243.859 27.9493 243.133 26.776 242.109 25.88C241.085 24.9413 239.741 24.472 238.077 24.472C235.603 24.472 233.533 25.2187 231.869 26.712C230.248 28.1627 229.181 30.5307 228.669 33.816Z" fill="#2B3A55"/>
</g>
<path d="M37.1377 55V52.888C35.5164 52.8027 34.407 52.44 33.8097 51.8C33.2124 51.1173 32.8924 50.2 32.8497 49.048C32.7644 47.8533 32.7217 46.5093 32.7217 45.016V17.368C32.7217 16.5147 32.7004 15.704 32.6577 14.936C32.615 14.1253 32.5724 13.4 32.5297 12.76C33.2977 12.8027 34.0657 12.8453 34.8337 12.888C35.6017 12.9307 36.3697 12.9733 37.1377 13.016V10.2C34.7484 10.1573 32.3377 10.1147 29.9057 10.072C27.431 10.0293 24.9564 10.0507 22.4817 10.136C18.343 10.1787 15.015 10.6693 12.4977 11.608C9.93771 12.504 8.06038 13.8053 6.86572 15.512C5.67105 17.176 5.07371 19.2027 5.07371 21.592C5.03105 23.256 5.35105 24.9627 6.03371 26.712C6.67371 28.4187 7.86838 29.9547 9.61771 31.32C11.3244 32.6853 13.799 33.7093 17.0417 34.392C16.1884 34.9893 15.4417 35.7573 14.8017 36.696C14.1617 37.6347 13.4364 38.7227 12.6257 39.96L8.27371 46.808C7.54838 47.96 6.84438 49.0053 6.16171 49.944C5.47905 50.84 4.68971 51.5653 3.79371 52.12C2.89771 52.632 1.78838 52.888 0.465714 52.888V55H8.52971C9.76705 53.8907 10.8124 52.7813 11.6657 51.672C12.4764 50.5627 13.3297 49.304 14.2257 47.896L18.5137 41.048C19.0684 40.152 19.7084 39.128 20.4337 37.976C21.1164 36.7813 21.9057 35.7787 22.8017 34.968C23.4844 35.0107 24.2097 35.032 24.9777 35.032C25.703 35.032 26.4284 35.0107 27.1537 34.968V47.384C27.1537 48.536 27.175 49.5387 27.2177 50.392C27.2177 51.2027 27.2604 51.8853 27.3457 52.44C26.8337 52.3973 26.3217 52.376 25.8097 52.376C25.2977 52.3333 24.7857 52.2907 24.2737 52.248C23.7617 52.2053 23.2497 52.184 22.7377 52.184V55H37.1377ZM23.1857 32.6C20.839 32.5147 18.791 32.1307 17.0417 31.448C15.2497 30.7653 13.8417 29.6773 12.8177 28.184C11.7937 26.6907 11.2817 24.728 11.2817 22.296C11.2817 20.6747 11.5164 19.2667 11.9857 18.072C12.4124 16.8347 13.095 15.8107 14.0337 15C14.9724 14.1893 16.167 13.592 17.6177 13.208C19.0684 12.7813 20.775 12.568 22.7377 12.568C24.3164 12.568 25.4257 12.888 26.0657 13.528C26.663 14.168 27.0044 15.064 27.0897 16.216C27.1324 17.3253 27.1537 18.648 27.1537 20.184V32.472C26.471 32.5147 25.831 32.5573 25.2337 32.6C24.5937 32.6427 23.911 32.6427 23.1857 32.6Z" fill="#2B3A55"/>
<defs>
<filter id="filter0_d_682_288" x="32.2173" y="8.40799" width="223.172" height="55.616" filterUnits="userSpaceOnUse" color-interpolation-filters="sRGB">
<feFlood flood-opacity="0" result="BackgroundImageFix"/>
<feColorMatrix in="SourceAlpha" type="matrix" values="0 0 0 0 0 0 0 0 0 0 0 0 0 0 0 0 0 0 127 0" result="hardAlpha"/>
<feOffset dy="4"/>
<feGaussianBlur stdDeviation="2"/>
<feComposite in2="hardAlpha" operator="out"/>
<feColorMatrix type="matrix" values="0 0 0 0 0 0 0 0 0 0 0 0 0 0 0 0 0 0 0.25 0"/>
<feBlend mode="normal" in2="BackgroundImageFix" result="effect1_dropShadow_682_288"/>
<feBlend mode="normal" in="SourceGraphic" in2="effect1_dropShadow_682_288" result="shape"/>
</filter>
</defs>
</svg>
