<svg width="112" height="112" viewBox="0 0 112 112" fill="none" xmlns="http://www.w3.org/2000/svg">
<circle cx="56" cy="56" r="55.5" stroke="black"/>
<rect x="10.5" y="46.5" width="90.0933" height="19.16" stroke="black"/>
<path d="M26.56 60.335V62H20.2075V51.155H22.225V60.335H26.56ZM33.5725 60.3725C33.9625 60.3725 34.31 60.3075 34.615 60.1775C34.925 60.0475 35.185 59.865 35.395 59.63C35.605 59.395 35.765 59.11 35.875 58.775C35.99 58.44 36.0475 58.065 36.0475 57.65V51.155H38.065V57.65C38.065 58.295 37.96 58.8925 37.75 59.4425C37.545 59.9875 37.2475 60.46 36.8575 60.86C36.4725 61.255 36.0025 61.565 35.4475 61.79C34.8925 62.01 34.2675 62.12 33.5725 62.12C32.8725 62.12 32.245 62.01 31.69 61.79C31.135 61.565 30.6625 61.255 30.2725 60.86C29.8875 60.46 29.59 59.9875 29.38 59.4425C29.175 58.8925 29.0725 58.295 29.0725 57.65V51.155H31.09V57.6425C31.09 58.0575 31.145 58.4325 31.255 58.7675C31.37 59.1025 31.5325 59.39 31.7425 59.63C31.9575 59.865 32.2175 60.0475 32.5225 60.1775C32.8325 60.3075 33.1825 60.3725 33.5725 60.3725ZM53.6003 51.155V62H51.8228V54.995C51.8228 54.715 51.8378 54.4125 51.8678 54.0875L48.5903 60.245C48.4353 60.54 48.1978 60.6875 47.8778 60.6875H47.5928C47.2728 60.6875 47.0353 60.54 46.8803 60.245L43.5653 54.065C43.5803 54.23 43.5928 54.3925 43.6028 54.5525C43.6128 54.7125 43.6178 54.86 43.6178 54.995V62H41.8403V51.155H43.3628C43.4528 51.155 43.5303 51.1575 43.5953 51.1625C43.6603 51.1675 43.7178 51.18 43.7678 51.2C43.8228 51.22 43.8703 51.2525 43.9103 51.2975C43.9553 51.3425 43.9978 51.4025 44.0378 51.4775L47.2853 57.5C47.3703 57.66 47.4478 57.825 47.5178 57.995C47.5928 58.165 47.6653 58.34 47.7353 58.52C47.8053 58.335 47.8778 58.1575 47.9528 57.9875C48.0278 57.8125 48.1078 57.645 48.1928 57.485L51.3953 51.4775C51.4353 51.4025 51.4778 51.3425 51.5228 51.2975C51.5678 51.2525 51.6153 51.22 51.6653 51.2C51.7203 51.18 51.7803 51.1675 51.8453 51.1625C51.9103 51.1575 51.9878 51.155 52.0778 51.155H53.6003ZM59.545 62H57.52V51.155H59.545V62ZM65.4981 52.76V55.7675H69.2931V57.32H65.4981V60.3875H70.3131V62H63.4731V51.155H70.3131V52.76H65.4981ZM76.8786 56.315C77.2586 56.315 77.5886 56.2675 77.8686 56.1725C78.1536 56.0775 78.3861 55.9475 78.5661 55.7825C78.7511 55.6125 78.8886 55.4125 78.9786 55.1825C79.0686 54.9525 79.1136 54.7 79.1136 54.425C79.1136 53.875 78.9311 53.4525 78.5661 53.1575C78.2061 52.8625 77.6536 52.715 76.9086 52.715H75.6186V56.315H76.8786ZM82.0686 62H80.2461C79.9011 62 79.6511 61.865 79.4961 61.595L77.2161 58.1225C77.1311 57.9925 77.0361 57.9 76.9311 57.845C76.8311 57.79 76.6811 57.7625 76.4811 57.7625H75.6186V62H73.6011V51.155H76.9086C77.6436 51.155 78.2736 51.2325 78.7986 51.3875C79.3286 51.5375 79.7611 51.75 80.0961 52.025C80.4361 52.3 80.6861 52.63 80.8461 53.015C81.0061 53.395 81.0861 53.815 81.0861 54.275C81.0861 54.64 81.0311 54.985 80.9211 55.31C80.8161 55.635 80.6611 55.93 80.4561 56.195C80.2561 56.46 80.0061 56.6925 79.7061 56.8925C79.4111 57.0925 79.0736 57.25 78.6936 57.365C78.8236 57.44 78.9436 57.53 79.0536 57.635C79.1636 57.735 79.2636 57.855 79.3536 57.995L82.0686 62ZM86.7647 52.76V55.7675H90.5597V57.32H86.7647V60.3875H91.5797V62H84.7397V51.155H91.5797V52.76H86.7647Z" fill="black"/>
</svg>
