<svg width="31" height="29" viewBox="0 0 31 29" fill="none" xmlns="http://www.w3.org/2000/svg">
<path d="M22.4374 0.625C19.7549 0.625 17.1803 1.87375 15.4999 3.84708C13.8195 1.87375 11.2449 0.625 8.56242 0.625C3.81409 0.625 0.083252 4.35583 0.083252 9.10417C0.083252 14.9317 5.32492 19.68 13.2645 26.895L15.4999 28.9146L17.7353 26.8796C25.6749 19.68 30.9166 14.9317 30.9166 9.10417C30.9166 4.35583 27.1858 0.625 22.4374 0.625ZM15.6541 24.5979L15.4999 24.7521L15.3458 24.5979C8.00742 17.9533 3.16659 13.5596 3.16659 9.10417C3.16659 6.02083 5.47909 3.70833 8.56242 3.70833C10.9366 3.70833 13.2491 5.23458 14.0662 7.34667H16.9491C17.7508 5.23458 20.0633 3.70833 22.4374 3.70833C25.5208 3.70833 27.8333 6.02083 27.8333 9.10417C27.8333 13.5596 22.9924 17.9533 15.6541 24.5979Z" fill="black"/>
</svg>
