<svg width="28" height="31" viewBox="0 0 28 31" fill="none" xmlns="http://www.w3.org/2000/svg">
<path d="M23.3333 21.9116C22.1511 21.9116 21.0933 22.3785 20.2844 23.1099L9.19333 16.6516C9.27111 16.2937 9.33333 15.9357 9.33333 15.5622C9.33333 15.1888 9.27111 14.8308 9.19333 14.4729L20.16 8.07681C21 8.85492 22.1044 9.33735 23.3333 9.33735C25.9156 9.33735 28 7.25201 28 4.66867C28 2.08534 25.9156 0 23.3333 0C20.7511 0 18.6667 2.08534 18.6667 4.66867C18.6667 5.04217 18.7289 5.4001 18.8067 5.75803L7.84 12.1541C7 11.376 5.89556 10.8936 4.66667 10.8936C2.08444 10.8936 0 12.9789 0 15.5622C0 18.1456 2.08444 20.2309 4.66667 20.2309C5.89556 20.2309 7 19.7485 7.84 18.9704L18.9156 25.4443C18.8378 25.7711 18.7911 26.1135 18.7911 26.4558C18.7911 28.9613 20.8289 31 23.3333 31C25.8378 31 27.8756 28.9613 27.8756 26.4558C27.8756 23.9503 25.8378 21.9116 23.3333 21.9116Z" fill="black"/>
</svg>
